<svg xmlns="http://www.w3.org/2000/svg" viewBox="0 0 161.5 28.17"><defs><style>.a{fill:#fff;}</style></defs><title>アセット 2</title><polygon class="a" points="10.25 6.17 4.25 6.17 0 10.41 0 16.42 4.25 20.67 10.25 20.67 14.5 16.42 14.5 10.41 10.25 6.17"/><polygon class="a" points="157.25 6.17 151.25 6.17 147 10.41 147 16.42 151.25 20.67 157.25 20.67 161.5 16.42 161.5 10.41 157.25 6.17"/><path class="a" d="M37,1.73V26.44a1.49,1.49,0,1,1-3,0v-12H28.22v12a1.49,1.49,0,1,1-3,0V1.73a1.49,1.49,0,1,1,3,0v10H34v-10a1.49,1.49,0,1,1,3,0Z"/><path class="a" d="M54.07,6.43v20a1.49,1.49,0,0,1-3,0V18h-5.8v8.47a1.49,1.49,0,0,1-3,0v-20c0-4,2-6.43,5.88-6.43S54.07,2.47,54.07,6.43Zm-3,8.79V6.94c0-2.94-1-4.11-2.9-4.11S45.29,4,45.29,6.94v8.28Z"/><path class="a" d="M70.71,17.81v8.71a1.49,1.49,0,0,1-3,0V18.63c0-2.23-1.34-4-3.26-4H62.35V26.52a1.49,1.49,0,0,1-3,0V1.73a1.49,1.49,0,0,1,3,0v10h2.32c1.88,0,2.78-.94,2.78-2.86V1.73a1.49,1.49,0,0,1,3,0V9.18c0,2.2-.86,3.73-1.92,4.24A5.2,5.2,0,0,1,70.71,17.81Z"/><path class="a" d="M87.42,17.81v8.71a1.49,1.49,0,1,1-3,0V18.63c0-2.23-1.33-4-3.26-4H79.06V26.52a1.49,1.49,0,0,1-3,0V1.73a1.49,1.49,0,0,1,3,0v10h2.32c1.88,0,2.78-.94,2.78-2.86V1.73a1.5,1.5,0,0,1,3,0V9.18c0,2.2-.87,3.73-1.93,4.24A5.2,5.2,0,0,1,87.42,17.81Z"/><path class="a" d="M104.37,6.43v20a1.49,1.49,0,0,1-3,0V18H95.58v8.47a1.49,1.49,0,0,1-3,0v-20c0-4,2-6.43,5.88-6.43S104.37,2.47,104.37,6.43Zm-3,8.79V6.94c0-2.94-1-4.11-2.91-4.11S95.58,4,95.58,6.94v8.28Z"/><path class="a" d="M121,17.81v8.71a1.49,1.49,0,1,1-3,0V18.63c0-2.23-1.33-4-3.26-4h-2.11V26.52a1.49,1.49,0,0,1-3,0V1.73a1.49,1.49,0,0,1,3,0v10H115c1.88,0,2.79-.94,2.79-2.86V1.73a1.49,1.49,0,0,1,3,0V9.18c0,2.2-.86,3.73-1.92,4.24A5.22,5.22,0,0,1,121,17.81Z"/><path class="a" d="M126.18,21.73v-20a1.49,1.49,0,1,1,3,0V21.22c0,3,1,4.12,2.91,4.12s2.9-1.17,2.9-4.12V1.73a1.49,1.49,0,1,1,3,0v20c0,4-2,6.44-5.88,6.44S126.18,25.7,126.18,21.73Z"/></svg>